<mxfile host="app.diagrams.net" agent="Mozilla/5.0 (Macintosh; Intel Mac OS X 10_15_7) AppleWebKit/537.36 (KHTML, like Gecko) Chrome/141.0.0.0 Safari/537.36" version="28.2.5">
  <diagram name="1 oldal" id="wI6BksSly18XZ3uJfsxo">
    <mxGraphModel dx="1502" dy="837" grid="1" gridSize="10" guides="1" tooltips="1" connect="1" arrows="1" fold="1" page="1" pageScale="1" pageWidth="827" pageHeight="1169" math="0" shadow="0">
      <root>
        <mxCell id="0" />
        <mxCell id="1" parent="0" />
        <mxCell id="HQ73maBf9M-sMPFiUdya-1" value="User query" style="rounded=1;whiteSpace=wrap;html=1;fillColor=#dae8fc;strokeColor=#6c8ebf;" parent="1" vertex="1">
          <mxGeometry x="330" y="130" width="120" height="30" as="geometry" />
        </mxCell>
        <mxCell id="HQ73maBf9M-sMPFiUdya-2" value="Vector database" style="rounded=1;whiteSpace=wrap;html=1;fillColor=#d5e8d4;strokeColor=#82b366;" parent="1" vertex="1">
          <mxGeometry x="340" y="290" width="100" height="90" as="geometry" />
        </mxCell>
        <mxCell id="HQ73maBf9M-sMPFiUdya-4" value="Documents&lt;div&gt;&lt;br&gt;&lt;/div&gt;" style="strokeWidth=2;html=1;shape=mxgraph.flowchart.multi-document;whiteSpace=wrap;fillColor=#ffe6cc;strokeColor=#d79b00;" parent="1" vertex="1">
          <mxGeometry x="60" y="300" width="170" height="90" as="geometry" />
        </mxCell>
        <mxCell id="HQ73maBf9M-sMPFiUdya-5" value="" style="endArrow=classic;html=1;rounded=0;exitX=1.012;exitY=0.411;exitDx=0;exitDy=0;exitPerimeter=0;entryX=0;entryY=0.5;entryDx=0;entryDy=0;" parent="1" source="HQ73maBf9M-sMPFiUdya-4" target="HQ73maBf9M-sMPFiUdya-2" edge="1">
          <mxGeometry width="50" height="50" relative="1" as="geometry">
            <mxPoint x="390" y="310" as="sourcePoint" />
            <mxPoint x="440" y="260" as="targetPoint" />
          </mxGeometry>
        </mxCell>
        <mxCell id="HQ73maBf9M-sMPFiUdya-6" value="" style="endArrow=classic;html=1;rounded=0;exitX=0.5;exitY=1;exitDx=0;exitDy=0;entryX=0.5;entryY=0;entryDx=0;entryDy=0;" parent="1" source="HQ73maBf9M-sMPFiUdya-1" target="HQ73maBf9M-sMPFiUdya-2" edge="1">
          <mxGeometry width="50" height="50" relative="1" as="geometry">
            <mxPoint x="390" y="310" as="sourcePoint" />
            <mxPoint x="440" y="260" as="targetPoint" />
          </mxGeometry>
        </mxCell>
        <mxCell id="HQ73maBf9M-sMPFiUdya-9" value="Chunk 1&lt;div&gt;Chunk 2&lt;/div&gt;&lt;div&gt;.....&lt;/div&gt;" style="rounded=0;whiteSpace=wrap;html=1;fillColor=#ffe6cc;strokeColor=#d79b00;" parent="1" vertex="1">
          <mxGeometry x="560" y="305" width="120" height="60" as="geometry" />
        </mxCell>
        <mxCell id="HQ73maBf9M-sMPFiUdya-10" value="Top N chunks" style="text;html=1;align=center;verticalAlign=middle;whiteSpace=wrap;rounded=0;" parent="1" vertex="1">
          <mxGeometry x="575" y="260" width="90" height="30" as="geometry" />
        </mxCell>
        <mxCell id="HQ73maBf9M-sMPFiUdya-11" value="" style="endArrow=classic;html=1;rounded=0;entryX=0;entryY=0.5;entryDx=0;entryDy=0;exitX=1;exitY=0.5;exitDx=0;exitDy=0;" parent="1" source="HQ73maBf9M-sMPFiUdya-2" target="HQ73maBf9M-sMPFiUdya-9" edge="1">
          <mxGeometry width="50" height="50" relative="1" as="geometry">
            <mxPoint x="390" y="310" as="sourcePoint" />
            <mxPoint x="440" y="260" as="targetPoint" />
          </mxGeometry>
        </mxCell>
        <mxCell id="HQ73maBf9M-sMPFiUdya-12" value="LLM" style="rounded=1;whiteSpace=wrap;html=1;fillColor=#d5e8d4;strokeColor=#82b366;" parent="1" vertex="1">
          <mxGeometry x="790" y="305" width="120" height="60" as="geometry" />
        </mxCell>
        <mxCell id="HQ73maBf9M-sMPFiUdya-13" value="Response" style="rounded=1;whiteSpace=wrap;html=1;fillColor=#dae8fc;strokeColor=#6c8ebf;" parent="1" vertex="1">
          <mxGeometry x="1020" y="305" width="120" height="60" as="geometry" />
        </mxCell>
        <mxCell id="HQ73maBf9M-sMPFiUdya-14" value="" style="endArrow=classic;html=1;rounded=0;entryX=0;entryY=0.5;entryDx=0;entryDy=0;exitX=1;exitY=0.5;exitDx=0;exitDy=0;" parent="1" source="HQ73maBf9M-sMPFiUdya-9" target="HQ73maBf9M-sMPFiUdya-12" edge="1">
          <mxGeometry width="50" height="50" relative="1" as="geometry">
            <mxPoint x="480" y="310" as="sourcePoint" />
            <mxPoint x="530" y="260" as="targetPoint" />
          </mxGeometry>
        </mxCell>
        <mxCell id="HQ73maBf9M-sMPFiUdya-15" value="" style="endArrow=classic;html=1;rounded=0;entryX=0;entryY=0.5;entryDx=0;entryDy=0;exitX=1;exitY=0.5;exitDx=0;exitDy=0;" parent="1" source="HQ73maBf9M-sMPFiUdya-12" target="HQ73maBf9M-sMPFiUdya-13" edge="1">
          <mxGeometry width="50" height="50" relative="1" as="geometry">
            <mxPoint x="950" y="330" as="sourcePoint" />
            <mxPoint x="1060" y="330" as="targetPoint" />
          </mxGeometry>
        </mxCell>
        <mxCell id="snZoiZan-CD7s3evwRZL-1" value="" style="swimlane;startSize=0;" vertex="1" parent="1">
          <mxGeometry x="40" y="100" width="1130" height="340" as="geometry" />
        </mxCell>
      </root>
    </mxGraphModel>
  </diagram>
</mxfile>
